<svg width="18" height="18" viewBox="0 0 18 18" xmlns="http://www.w3.org/2000/svg"><title>fast forward</title><path d="M18 9a.364.364 0 0 0-.146-.292L7.354.083A.313.313 0 0 0 7.125 0c-.062 0-.104.02-.167.042a.371.371 0 0 0-.208.333v4.75L.604.083A.313.313 0 0 0 .375 0C.313 0 .271.02.208.042A.371.371 0 0 0 0 .375v17.25c0 .146.083.27.208.333a.38.38 0 0 0 .396-.041l6.146-5.042v4.75c0 .146.083.27.208.333a.38.38 0 0 0 .396-.041l10.5-8.625C17.958 9.229 18 9.104 18 9z" fill="#A83C47" fill-rule="evenodd"/></svg>