<svg width="19" height="19" viewBox="0 0 19 19" xmlns="http://www.w3.org/2000/svg"><title>instagram</title><path d="M14.25 7.52a4.97 4.97 0 0 1 .396 1.98A5.152 5.152 0 0 1 9.5 14.646 5.152 5.152 0 0 1 4.354 9.5c0-.704.132-1.363.396-1.98H0v8.71A2.788 2.788 0 0 0 2.77 19h13.46A2.788 2.788 0 0 0 19 16.23V7.52h-4.75zM9.5 13.063A3.562 3.562 0 0 0 13.063 9.5 3.576 3.576 0 0 0 9.5 5.937 3.562 3.562 0 0 0 5.938 9.5 3.548 3.548 0 0 0 9.5 13.062zM19 2.771A2.788 2.788 0 0 0 16.23 0H2.77A2.788 2.788 0 0 0 0 2.77v3.167h5.784A5.2 5.2 0 0 1 9.5 4.354a5.2 5.2 0 0 1 3.716 1.583H19V2.771z" fill="#E6E6E6" fill-rule="evenodd"/></svg>