<svg width="21" height="18" viewBox="0 0 21 18" xmlns="http://www.w3.org/2000/svg"><title>twitter</title><path d="M21 2.767a8.518 8.518 0 0 1-2.48.68 4.292 4.292 0 0 0 1.897-2.381c-.827.486-1.75.85-2.723 1.045-.802-.826-1.92-1.361-3.16-1.361a4.294 4.294 0 0 0-4.301 4.302c0 .34.024.68.097.997-3.573-.195-6.733-1.823-8.872-4.424-.364.632-.583 1.288-.583 2.09 0 1.483.753 2.795 1.92 3.573a4.383 4.383 0 0 1-1.944-.535v.049c0 2.09 1.482 3.84 3.451 4.23a4.46 4.46 0 0 1-1.944.072c.534 1.702 2.139 2.965 4.01 2.99-1.458 1.166-3.33 2.041-5.347 2.041-.34 0-.68-.024-1.021-.073 1.896 1.216 4.18 1.75 6.611 1.75 7.924 0 12.25-6.562 12.25-12.25v-.559a8.922 8.922 0 0 0 2.14-2.236z" fill="#E6E6E6" fill-rule="evenodd"/></svg>