<svg width="48" height="48" viewBox="0 0 48 48" xmlns="http://www.w3.org/2000/svg" xmlns:xlink="http://www.w3.org/1999/xlink"><title>emblem</title><defs><path id="a" d="M.009.023h24.006v47.933H.009z"/><path id="c" d="M.009.036h47.91v12.017H.009z"/><path id="e" d="M.025.023h29.927v47.933H.025z"/><path id="g" d="M.043.008h10.506v11.089H.043z"/><path id="i" d="M.009.013h13.238v4.931H.009z"/><path id="k" d="M.005.013h.502v.602H.005z"/><path id="m" d="M.005.013h20.113v22.038H.005z"/><path id="o" d="M.004.003h25.744v11.031H.004z"/><path id="q" d="M.004.019h6.023v22.485H.004z"/></defs><g fill="none" fill-rule="evenodd"><path d="M47.94 47.963l-5.992-12.017L.03 47.963h47.91z" fill="#99323E"/><g transform="translate(.021 .007)" opacity=".7"><mask id="b" fill="#fff"><use xlink:href="#a"/></mask><path d="M.009 47.956L24.015.023 12.012 47.956H.009z" fill="#762630" mask="url(#b)"/></g><g transform="translate(.021 35.91)" opacity=".7"><mask id="d" fill="#fff"><use xlink:href="#c"/></mask><path d="M47.919 12.053L41.926.036.01 12.053h47.91z" fill="#BE3F4C" mask="url(#d)"/></g><g transform="translate(17.988 .007)" opacity=".7"><mask id="f" fill="#fff"><use xlink:href="#e"/></mask><path d="M6.049.023L.025 12.05l29.927 35.906L6.05.023z" fill="#E84C5C" mask="url(#f)"/></g><g transform="translate(37.391 36.866)" opacity=".7"><mask id="h" fill="#fff"><use xlink:href="#g"/></mask><path d="M1.314.008l9.235 11.09L.043.372l1.27-.365z" fill="#9E3440" mask="url(#h)"/></g><g transform="translate(.021 43.019)" opacity=".7"><mask id="j" fill="#fff"><use xlink:href="#i"/></mask><path d="M.009 4.944L12.94 1.237l.307-1.224L.009 4.944z" fill="#562026" mask="url(#j)"/></g><path d="M20.3 14.95L24.036.03l-6.11 12.198L20.3 14.95z" fill="#762630"/><g transform="translate(20.323 14.822)" opacity=".7"><mask id="l" fill="#fff"><use xlink:href="#k"/></mask><path d="M.005.013l.502.602" fill="#D04553" mask="url(#l)"/></g><g transform="translate(18.587 14.822)" opacity=".7"><mask id="n" fill="#fff"><use xlink:href="#m"/></mask><path d="M1.742.013L.005 6.95 20.12 22.05 1.742.013z" fill="#F37989" mask="url(#n)"/></g><g transform="translate(12.957 33.222)" opacity=".7"><mask id="p" fill="#fff"><use xlink:href="#o"/></mask><path d="M.004 11.034L20.888.004l4.86 3.648L.004 11.034z" fill="#C04C5A" mask="url(#p)"/></g><g transform="translate(12.957 21.752)" opacity=".7"><mask id="r" fill="#fff"><use xlink:href="#q"/></mask><path d="M5.635.019l.393 19.303-6.024 3.182L5.634.02z" fill="#9A1F2E" mask="url(#r)"/></g></g></svg>