<?xml version="1.0" encoding="UTF-8" standalone="no"?>
<svg width="18px" height="18px" viewBox="0 0 18 18" version="1.1" xmlns="http://www.w3.org/2000/svg" xmlns:xlink="http://www.w3.org/1999/xlink">
    <!-- Generator: Sketch 3.6.1 (26313) - http://www.bohemiancoding.com/sketch -->
    <title>fast forward</title>
    <desc>Created with Sketch.</desc>
    <defs></defs>
    <g id="Mobile--3" stroke="none" stroke-width="1" fill="none" fill-rule="evenodd">
        <g id="iPhone-6-Copy-15" transform="translate(-340.000000, -632.000000)" fill="#A83C47">
            <g id="Player" transform="translate(0.000000, 610.000000)">
                <g id="Group-10" transform="translate(224.000000, 21.000000)">
                    <path d="M134.000047,9.9999764 C134.000047,9.89580946 133.95838,9.79164252 133.854213,9.70830896 L123.354186,1.08328635 C123.291686,1.02078618 123.208352,0.999952793 123.125019,0.999952793 C123.062519,0.999952793 123.020852,1.02078618 122.958352,1.04161957 C122.833351,1.10411973 122.750018,1.22912006 122.750018,1.37495378 L122.750018,6.12496623 L116.604168,1.08328635 C116.541668,1.02078618 116.458335,0.999952793 116.375001,0.999952793 C116.312501,0.999952793 116.270834,1.02078618 116.208334,1.04161957 C116.083334,1.10411973 116,1.22912006 116,1.37495378 L116,18.624999 C116,18.7708327 116.083334,18.8958331 116.208334,18.9583332 C116.354168,19.0208334 116.500001,19 116.604168,18.9166664 L122.750018,13.8749866 L122.750018,18.624999 C122.750018,18.7708327 122.833351,18.8958331 122.958352,18.9583332 C123.104185,19.0208334 123.250019,19 123.354186,18.9166664 L133.854213,10.2916438 C133.95838,10.2291437 134.000047,10.1041433 134.000047,9.9999764 L134.000047,9.9999764 Z" id="fast-forward"></path>
                </g>
            </g>
        </g>
    </g>
</svg>