<?xml version="1.0" encoding="UTF-8" standalone="no"?>
<svg width="32px" height="32px" viewBox="0 0 32 32" version="1.1" xmlns="http://www.w3.org/2000/svg" xmlns:xlink="http://www.w3.org/1999/xlink">
    <!-- Generator: Sketch 3.7.2 (28276) - http://www.bohemiancoding.com/sketch -->
    <title>Artboard</title>
    <desc>Created with Sketch.</desc>
    <defs></defs>
    <g id="Page-1" stroke="none" stroke-width="1" fill="none" fill-rule="evenodd">
        <g id="Artboard" fill="#FFFFFF">
            <g id="icon-play">
                <g id="play">
                    <g id="Mobile--3">
                        <g id="iPhone-6-Copy-15">
                            <g id="Player">
                                <g id="Group-10">
                                    <path d="M0.666667131,32.0051535 C0.777778349,32.0051535 0.851852613,31.9681166 0.962963831,31.9310795 L31.6296556,16.5977335 C31.851878,16.4866224 32.0000262,16.2644 32.0000262,16.0051404 C32.0000262,15.745881 31.851878,15.5236586 31.6296556,15.4125474 L0.962963831,0.0792014968 C0.740741395,-0.0319097018 0.518518959,-0.0319097018 0.296296522,0.116238575 C0.111111218,0.227349776 -1.42108547e-14,0.449572176 -1.42108547e-14,0.671794577 L-1.42108547e-14,31.3384864 C-1.42108547e-14,31.5607088 0.111111218,31.7829313 0.296296522,31.8940423 C0.407407741,31.9681166 0.555556091,32.0051535 0.666667131,32.0051535 L0.666667131,32.0051535 L0.666667131,32.0051535 Z" id="play"></path>
                                </g>
                            </g>
                        </g>
                    </g>
                </g>
            </g>
        </g>
    </g>
</svg>