<svg width="18" height="17" viewBox="0 0 18 17" xmlns="http://www.w3.org/2000/svg"><title>Shape</title><path d="M9.113 17c-.05 0-.1-.002-.136-.004-.03.003-.06.004-.09.004-1.072 0-1.789-.51-2.421-.96-.453-.322-.881-.626-1.382-.71a4.434 4.434 0 0 0-.727-.062c-.426 0-.762.067-1.008.115-.151.03-.282.055-.383.055-.105 0-.233-.023-.287-.207-.042-.145-.073-.285-.102-.42-.073-.338-.126-.544-.252-.563-1.344-.21-2.139-.516-2.297-.889A.347.347 0 0 1 0 13.242a.217.217 0 0 1 .18-.226c1.068-.177 2.017-.745 2.822-1.688a6.37 6.37 0 0 0 .967-1.515c.155-.317.186-.59.092-.813-.173-.411-.747-.594-1.126-.715a4.037 4.037 0 0 1-.255-.087c-.336-.134-.89-.416-.816-.806.054-.284.427-.482.73-.482.083 0 .158.014.22.044.342.16.649.242.913.242.328 0 .487-.125.525-.161-.01-.176-.02-.363-.032-.54v-.001c-.077-1.234-.173-2.77.217-3.65C5.606.208 8.084.004 8.815.004A185.639 185.639 0 0 0 9.177 0c.734 0 3.217.205 4.386 2.842.39.881.294 2.418.217 3.653l-.004.06-.029.48c.037.033.182.148.477.16.252-.01.541-.09.86-.24a.676.676 0 0 1 .281-.057c.112 0 .226.022.321.062l.005.002c.27.096.448.29.451.492.004.189-.136.471-.822.744-.07.028-.16.057-.255.087-.38.121-.953.304-1.126.715-.094.222-.063.496.092.812l.005.011c.047.113 1.204 2.765 3.783 3.192a.217.217 0 0 1 .18.227.35.35 0 0 1-.028.118c-.157.37-.951.677-2.296.886-.126.02-.18.225-.252.56-.03.14-.06.276-.102.419-.04.134-.127.2-.266.2h-.021a2.14 2.14 0 0 1-.383-.049 5.005 5.005 0 0 0-1.008-.107c-.237 0-.481.02-.727.061-.5.084-.928.388-1.38.71-.634.45-1.351.96-2.423.96" fill="#E6E6E6" fill-rule="evenodd"/></svg>