<?xml version="1.0" encoding="UTF-8" standalone="no"?>
<svg width="19px" height="19px" viewBox="0 0 19 19" version="1.1" xmlns="http://www.w3.org/2000/svg" xmlns:xlink="http://www.w3.org/1999/xlink">
    <!-- Generator: Sketch 3.7.2 (28276) - http://www.bohemiancoding.com/sketch -->
    <title>instagram</title>
    <desc>Created with Sketch.</desc>
    <defs></defs>
    <g id="Mobile--4" stroke="none" stroke-width="1" fill="none" fill-rule="evenodd">
        <g id="mbp-mobile" transform="translate(-70.000000, -4393.000000)" fill="#E6E6E6">
            <g id="Footer" transform="translate(15.000000, 4316.000000)">
                <path d="M69.2500374,84.5208032 C69.513927,85.1365456 69.6458717,85.7962695 69.6458717,86.4999751 C69.6458717,89.3367881 67.3368379,91.6458219 64.5000249,91.6458219 C61.6632119,91.6458219 59.3541781,89.3367881 59.3541781,86.4999751 C59.3541781,85.7962695 59.4861229,85.1365456 59.7500125,84.5208032 L55,84.5208032 L55,93.2291594 C55,94.7465245 56.2534755,96 57.7708406,96 L71.2292092,96 C72.7465743,96 74.0000498,94.7465245 74.0000498,93.2291594 L74.0000498,84.5208032 L69.2500374,84.5208032 Z M64.5000249,90.0624844 C66.457206,90.0624844 68.0625343,88.4791469 68.0625343,86.4999751 C68.0625343,84.542794 66.457206,82.9374657 64.5000249,82.9374657 C62.5208531,82.9374657 60.9375156,84.542794 60.9375156,86.4999751 C60.9375156,88.4791469 62.5208531,90.0624844 64.5000249,90.0624844 L64.5000249,90.0624844 Z M74.0000498,79.7707908 C74.0000498,78.2534257 72.7465743,76.9999502 71.2292092,76.9999502 L57.7708406,76.9999502 C56.2534755,76.9999502 55,78.2534257 55,79.7707908 L55,82.9374657 L60.78358,82.9374657 C61.7291843,81.9698706 63.0486322,81.3541283 64.5000249,81.3541283 C65.9514176,81.3541283 67.2708655,81.9698706 68.2164698,82.9374657 L74.0000498,82.9374657 L74.0000498,79.7707908 Z" id="instagram"></path>
            </g>
        </g>
    </g>
</svg>