<?xml version="1.0" encoding="UTF-8"?>
<svg width="42px" height="18px" viewBox="0 0 42 18" version="1.1" xmlns="http://www.w3.org/2000/svg" xmlns:xlink="http://www.w3.org/1999/xlink">
    <!-- Generator: Sketch 41.2 (35397) - http://www.bohemiancoding.com/sketch -->
    <title>soundcloud_logo</title>
    <desc>Created with Sketch.</desc>
    <defs></defs>
    <g id="Page-1" stroke="none" stroke-width="1" fill="none" fill-rule="evenodd">
        <g id="soundcloud_logo" fill="#E6E6E6">
            <path d="M0.4693,10.7640395 C0.382838272,10.7640395 0.314203704,10.8308914 0.303061728,10.9262667 L0,13.2281988 L0.303061728,15.4904654 C0.314203704,15.5858407 0.382838272,15.6522469 0.4693,15.6522469 C0.553087654,15.6522469 0.621276543,15.5862864 0.634646914,15.4913568 L0.634646914,15.4913568 L0.634646914,15.4909111 C0.634646914,15.4909111 0.634646914,15.4909111 0.634646914,15.4913568 L0.993864198,13.2281988 L0.634646914,10.925821 C0.621722222,10.8308914 0.552641975,10.7640395 0.4693,10.7640395 Z M2.17357654,9.50633333 C2.15931481,9.40739259 2.08845185,9.3392037 2.00109877,9.3392037 C1.9133,9.3392037 1.84065432,9.40962099 1.82862099,9.50633333 C1.82862099,9.50722469 1.42127037,13.2281988 1.42127037,13.2281988 L1.82862099,16.8676136 C1.84020864,16.9652173 1.91285432,17.0356346 2.00109877,17.0356346 C2.08800617,17.0356346 2.15886914,16.967 2.17313086,16.8685049 L2.63663704,13.2281988 L2.17357654,9.50633333 Z M8.59313704,6.0732679 C8.42600741,6.0732679 8.28784691,6.21009136 8.27982469,6.38390617 L7.95537037,13.2313185 L8.27982469,17.6564654 C8.28829259,17.8293889 8.42600741,17.9657667 8.59313704,17.9657667 C8.75937531,17.9657667 8.89709012,17.8289432 8.90689506,17.6555741 L8.90689506,17.6569111 L9.27368889,13.2313185 L8.90689506,6.38390617 C8.89709012,6.21009136 8.75937531,6.0732679 8.59313704,6.0732679 Z M5.2706,8.45319383 C5.14224444,8.45319383 5.03750988,8.5557 5.02725926,8.69252346 L4.66180247,13.2295358 L5.02725926,17.6190284 C5.0370642,17.7549605 5.14224444,17.8574667 5.2706,17.8574667 C5.39761852,17.8574667 5.50235309,17.7549605 5.51349506,17.6190284 L5.9288679,13.2295358 L5.51349506,8.6916321 C5.50235309,8.5557 5.39761852,8.45319383 5.2706,8.45319383 Z M11.9696012,17.965321 C12.176842,17.965321 12.3453086,17.7981914 12.3537765,17.5842654 L12.6719914,13.2335469 L12.3542222,4.11718272 C12.3457543,3.90325679 12.1772877,3.73612716 11.9700469,3.73612716 C11.7610235,3.73612716 11.5921111,3.90370247 11.5854259,4.1176284 C11.5854259,4.11807407 11.3033111,13.2331012 11.3033111,13.2331012 L11.5854259,17.5856025 C11.5921111,17.7977457 11.7610235,17.965321 11.9696012,17.965321 Z M18.8820827,17.9858222 C19.1673173,17.9858222 19.4026358,17.7509494 19.407984,17.4621494 L19.407984,17.4652691 L19.407984,17.4621494 L19.6299321,13.236221 L19.407984,2.7075 C19.4030815,2.41914568 19.1673173,2.18382716 18.8820827,2.18382716 C18.5964025,2.18382716 18.3606383,2.4187 18.3561815,2.70794568 L18.1578543,13.2326556 C18.1578543,13.2393407 18.3561815,17.4648235 18.3561815,17.4648235 C18.3606383,17.7509494 18.5968481,17.9858222 18.8820827,17.9858222 Z M15.3995469,17.9693321 C15.6477901,17.9693321 15.8479,17.7701136 15.8545852,17.5160765 L15.8545852,17.5191963 L16.1246667,13.2344383 L15.8541395,4.05211358 C15.8474543,3.79807654 15.6473444,3.5993037 15.3991012,3.5993037 C15.1490753,3.5993037 14.9489654,3.79807654 14.9436173,4.05211358 L14.7033963,13.234884 L14.944063,17.5187506 C14.9494111,17.7701136 15.149521,17.9693321 15.3995469,17.9693321 Z M6.92540617,17.929221 C7.07292593,17.929221 7.1923679,17.811116 7.20350988,17.6555741 L7.59481605,13.2295358 L7.20350988,9.01920617 C7.19281358,8.8636642 7.0733716,8.74645062 6.92540617,8.74645062 C6.77565802,8.74645062 6.65621605,8.86455556 6.64685679,9.02098889 L6.30234691,13.2295358 L6.64685679,17.6551284 C6.65666173,17.811116 6.77565802,17.929221 6.92540617,17.929221 Z M3.6291642,17.6867716 C3.73701852,17.6867716 3.8243716,17.6016469 3.83685062,17.4839877 L4.27629012,13.2286444 L3.8372963,8.81285679 C3.8243716,8.69475185 3.73701852,8.60962716 3.6291642,8.60962716 C3.51997284,8.60962716 3.43261975,8.69519753 3.42147778,8.81285679 C3.42147778,8.81330247 3.0346284,13.2286444 3.0346284,13.2286444 L3.42147778,17.4830963 C3.43217407,17.6012012 3.51952716,17.6867716 3.6291642,17.6867716 Z M17.1341296,3.89924568 C16.8644938,3.89924568 16.6483395,4.11361728 16.6429914,4.38815556 L16.4237173,13.2353296 L16.6429914,17.4924556 C16.6483395,17.7634284 16.8640481,17.9778 17.1341296,17.9778 C17.4033198,17.9778 17.618137,17.7638741 17.6243765,17.4893358 L17.6243765,17.4929012 L17.8703914,13.2357753 L17.6243765,4.3872642 C17.618137,4.11361728 17.4033198,3.89924568 17.1341296,3.89924568 Z M10.2751296,17.9742346 C10.4614235,17.9742346 10.6151827,17.822258 10.6240963,17.6283877 L10.9663778,13.2326556 L10.6240963,4.81912716 C10.614737,4.62481111 10.4614235,4.47328025 10.2751296,4.47328025 C10.0870531,4.47328025 9.93373951,4.62525679 9.92571728,4.81912716 C9.92571728,4.81957284 9.62265556,13.2326556 9.62265556,13.2326556 L9.92616296,17.6301704 C9.93373951,17.822258 10.0870531,17.9742346 10.2751296,17.9742346 Z M14.0972728,17.5593074 L14.0972728,17.557079 L14.391421,13.2339926 L14.0972728,3.81055556 C14.090142,3.57657407 13.9056309,3.39295432 13.6778889,3.39295432 C13.4488099,3.39295432 13.2642988,3.5761284 13.2580593,3.81055556 L12.9968914,13.2335469 L13.2585049,17.5588617 C13.2647444,17.7906148 13.4492556,17.9737889 13.6778889,17.9737889 C13.9060765,17.9737889 14.0896963,17.7906148 14.0972728,17.5575247 L14.0972728,17.5593074 L14.0972728,17.5593074 Z M36.3446778,7.80205679 C35.6462988,7.80205679 34.9800086,7.94333704 34.3729938,8.19781975 C33.9674259,3.60376049 30.1149765,0 25.415737,0 C24.2658852,0 23.1450025,0.226404938 22.1551494,0.60924321 C21.7705284,0.7581 21.6680222,0.91141358 21.6644568,1.20868148 L21.6644568,17.3868296 C21.6684679,17.6988049 21.9104716,17.9586358 22.2148704,17.9893877 C22.2277951,17.9907247 36.2533136,17.9978556 36.3442321,17.9978556 C39.1591407,17.9978556 41.441463,15.7155333 41.441463,12.900179 C41.441463,10.0848247 39.1595864,7.80205679 36.3446778,7.80205679 Z M20.6224593,1.19441975 C20.3162778,1.19441975 20.0649148,1.44578272 20.060458,1.75463827 L19.8304877,13.237558 L20.0609037,17.4051025 C20.0649148,17.7095012 20.3162778,17.9604185 20.6224593,17.9604185 C20.9277494,17.9604185 21.1791123,17.7095012 21.1835691,17.4006457 L21.1835691,17.4055481 L21.4335951,13.237558 L21.1835691,1.75374691 C21.1791123,1.44578272 20.9277494,1.19441975 20.6224593,1.19441975 Z" id="Shape"></path>
        </g>
    </g>
</svg>