<svg width="42" height="18" viewBox="0 0 42 18" xmlns="http://www.w3.org/2000/svg"><title>soundcloud_logo</title><path d="M.47 10.764c-.087 0-.156.067-.167.162L0 13.228l.303 2.262c.011.096.08.162.166.162.084 0 .152-.066.166-.16v-.001l.359-2.263-.36-2.302c-.012-.095-.081-.162-.165-.162zm1.704-1.258C2.159 9.407 2.088 9.34 2 9.34c-.088 0-.16.07-.172.167l-.408 3.722.408 3.64c.011.097.084.168.172.168.087 0 .158-.069.172-.167l.464-3.64-.463-3.723zm6.42-3.433a.32.32 0 0 0-.314.31l-.325 6.848.325 4.425a.32.32 0 0 0 .313.31.322.322 0 0 0 .314-.31l.367-4.425-.367-6.847a.322.322 0 0 0-.314-.31zM5.27 8.453c-.129 0-.233.103-.244.24l-.365 4.537.365 4.389c.01.136.115.238.244.238.127 0 .231-.102.242-.238l.416-4.39-.416-4.537c-.01-.136-.115-.239-.242-.239zm6.699 9.512a.39.39 0 0 0 .384-.38l.318-4.351-.318-9.117a.39.39 0 0 0-.384-.38.387.387 0 0 0-.385.38l-.282 9.116.282 4.353c.007.212.176.38.385.38zm6.912.02c.285 0 .52-.234.526-.523v.003-.003l.222-4.226-.222-10.529a.532.532 0 0 0-.526-.523.531.531 0 0 0-.526.524l-.198 10.525.198 4.232a.53.53 0 0 0 .526.52zM15.4 17.97c.248 0 .448-.199.455-.453v.003l.27-4.285-.27-9.182a.458.458 0 0 0-.456-.453c-.25 0-.45.2-.455.453l-.24 9.183.24 4.284c.005.251.206.45.456.45zm-8.475-.04a.284.284 0 0 0 .279-.273l.39-4.426-.39-4.21a.283.283 0 0 0-.279-.274c-.15 0-.269.119-.278.275l-.345 4.209.345 4.425c.01.156.129.274.278.274zm-3.296-.242c.108 0 .195-.085.208-.203l.44-4.255-.44-4.416c-.013-.118-.1-.203-.208-.203-.109 0-.196.085-.208.203l-.386 4.416.386 4.254c.011.118.099.204.208.204zM17.134 3.899a.492.492 0 0 0-.491.49l-.22 8.846.22 4.257a.49.49 0 0 0 .981-.003v.004l.246-4.257-.246-8.849a.491.491 0 0 0-.49-.488zm-6.859 14.075c.186 0 .34-.152.35-.346l.341-4.395-.342-8.414a.356.356 0 0 0-.349-.346.354.354 0 0 0-.35.346l-.302 8.414.303 4.397c.008.192.161.344.35.344zm3.822-.415v-.002l.294-4.323-.294-9.423a.423.423 0 0 0-.42-.418.422.422 0 0 0-.419.418l-.261 9.423.262 4.325c.006.232.19.415.419.415a.423.423 0 0 0 .42-.416v.001zm22.248-9.757c-.699 0-1.365.141-1.972.396C33.967 3.604 30.115 0 25.416 0c-1.15 0-2.271.226-3.26.61-.385.148-.488.301-.492.599v16.178a.617.617 0 0 0 .55.602c.014.002 14.04.009 14.13.009a5.098 5.098 0 0 0 0-10.196zM20.622 1.194a.567.567 0 0 0-.562.56l-.23 11.484.23 4.167a.565.565 0 0 0 .562.555c.306 0 .557-.25.562-.56v.006l.25-4.168-.25-11.484a.567.567 0 0 0-.562-.56z" fill="#E6E6E6" fill-rule="evenodd"/></svg>