<?xml version="1.0" encoding="UTF-8" standalone="no"?>
<svg width="18px" height="17px" viewBox="0 0 18 17" version="1.1" xmlns="http://www.w3.org/2000/svg" xmlns:xlink="http://www.w3.org/1999/xlink">
    <!-- Generator: Sketch 3.7.2 (28276) - http://www.bohemiancoding.com/sketch -->
    <title>Shape</title>
    <desc>Created with Sketch.</desc>
    <defs></defs>
    <g id="Desktop--Home-2" stroke="none" stroke-width="1" fill="none" fill-rule="evenodd">
        <g id="Desktop-HD" transform="translate(-210.000000, -2429.000000)" fill="#E6E6E6">
            <g id="Footer" transform="translate(47.000000, 2355.000000)">
                <path d="M172.113325,91 C172.06231,91 172.013635,90.9981259 171.976616,90.9963479 C171.947239,90.9988948 171.916907,91 171.886527,91 C170.814773,91 170.098169,90.490296 169.465779,90.0402265 C169.012516,89.7181235 168.585047,89.4140407 168.084255,89.3302353 C167.838302,89.2891976 167.593638,89.2683904 167.357238,89.2683904 C166.931298,89.2683904 166.594682,89.3348484 166.34892,89.3831903 C166.197689,89.4128393 166.067284,89.4383558 165.966495,89.4383558 C165.86093,89.4383558 165.732675,89.4148095 165.679223,89.2311969 C165.636854,89.0863635 165.606474,88.9460472 165.577145,88.8109206 C165.503774,88.4732483 165.450562,88.2671466 165.324886,88.2475888 C163.980668,88.0389403 163.186443,87.7315898 163.028238,87.359367 C163.011662,87.3202515 163.002396,87.2808956 163.000342,87.2419722 C162.99418,87.1310166 163.07204,87.0337082 163.180758,87.015592 C164.24826,86.8387549 165.197443,86.2711464 166.002082,85.3279994 C166.625396,84.5978257 166.931489,83.9001843 166.964353,83.8231545 C166.965786,83.8196946 166.967458,83.8160425 166.969177,83.8127268 C167.124277,83.4961501 167.155135,83.2225812 167.061177,82.999853 C166.887973,82.5889471 166.314336,82.4058631 165.934826,82.2847201 C165.840438,82.2546866 165.751161,82.2262389 165.680035,82.1978393 C165.343611,82.0641543 164.790323,81.7816956 164.864028,81.3918371 C164.917718,81.1075523 165.291497,80.9095717 165.593577,80.9095717 C165.677456,80.9095717 165.751782,80.9243722 165.814357,80.9539251 C166.155701,81.1148084 166.462797,81.1963553 166.726902,81.1963553 C167.055349,81.1963553 167.213984,81.0705511 167.252341,81.0347992 C167.242883,80.8585388 167.231324,80.6721872 167.220146,80.4959268 C167.220146,80.4957345 167.219907,80.4936202 167.219907,80.4936202 C167.142811,79.2598453 167.046656,77.7244383 167.437057,76.8439532 C168.605539,74.2083602 171.08356,74.0034118 171.814971,74.0034118 C171.83446,74.0034118 172.13377,74.0004325 172.13377,74.0004325 C172.147288,74.0001922 172.161953,74 172.177142,74 C172.91056,74 175.39374,74.2051887 176.562938,76.8423674 C176.95334,77.7234292 176.857089,79.2601336 176.779754,80.495206 L176.776123,80.5543118 C176.765519,80.7220187 176.755727,80.8807396 176.747463,81.034607 C176.783575,81.0680523 176.92874,81.1833808 177.224084,81.1950578 C177.475865,81.185351 177.765192,81.1041886 178.083799,80.9541173 C178.182295,80.9076015 178.291348,80.8979427 178.365387,80.8979427 C178.477305,80.8979427 178.591182,80.9198552 178.686096,80.9596916 L178.691159,80.9616617 C178.961522,81.0582013 179.138595,81.2511363 179.142416,81.4538262 C179.145808,81.6427727 179.006232,81.9251835 178.319721,82.1979354 C178.249408,82.2259506 178.159701,82.2545905 178.064931,82.2848162 C177.685086,82.4061034 177.111927,82.5890913 176.938723,82.9997569 C176.844622,83.2224851 176.875575,83.4959578 177.030723,83.8124385 C177.032442,83.8158984 177.033923,83.8194063 177.035595,83.8230584 C177.083362,83.9356959 178.239568,86.5878193 180.819189,87.0153517 C180.92786,87.033564 181.005864,87.1309685 180.999654,87.241732 C180.997361,87.2815203 180.987808,87.3213086 180.971089,87.360184 C180.813983,87.7303404 180.019805,88.0372585 178.675205,88.2461953 C178.549004,88.2658011 178.495839,88.4709898 178.423137,88.8068841 C178.393044,88.9456147 178.362425,89.0816062 178.320629,89.2245175 C178.281508,89.3589233 178.194476,89.4246125 178.054709,89.4246125 L178.033643,89.4246125 C177.942647,89.4246125 177.813723,89.4079859 177.651123,89.3759823 C177.366908,89.3203363 177.048158,89.2685345 176.642805,89.2685345 C176.406453,89.2685345 176.161837,89.2893898 175.915597,89.3303795 C175.415331,89.4141848 174.987909,89.7177872 174.535458,90.0395537 C173.901826,90.490248 173.184983,91 172.113325,91" id="Shape"></path>
            </g>
        </g>
    </g>
</svg>