<svg width="19" height="19" viewBox="0 0 19 19" xmlns="http://www.w3.org/2000/svg"><title>dribbble</title><path d="M9.5 0A9.488 9.488 0 0 0 0 9.5C0 14.756 4.244 19 9.5 19S19 14.756 19 9.5 14.756 0 9.5 0zm6.201 4.574a8.031 8.031 0 0 1 1.716 4.772c-1.913-.44-3.739-.528-5.454-.264-.198-.484-.418-.967-.638-1.473 1.782-.726 3.233-1.738 4.376-3.035zM9.5 1.584c1.98 0 3.804.725 5.19 1.934-1.034 1.21-2.353 2.134-4.024 2.815-.814-1.495-1.782-3.034-2.991-4.53a7.155 7.155 0 0 1 1.825-.22zm-3.453.791a29.533 29.533 0 0 1 3.057 4.486c-2.001.572-4.42.88-7.345.946a7.92 7.92 0 0 1 4.288-5.432zM1.583 9.5v-.242c3.277-.044 5.96-.418 8.203-1.077.198.417.396.857.572 1.275a3.79 3.79 0 0 0-.462.154c-2.507.88-4.618 2.617-6.29 5.168A7.916 7.916 0 0 1 1.583 9.5zM9.5 17.417a7.895 7.895 0 0 1-4.816-1.628c1.803-2.836 3.98-4.332 6.223-4.97a33.496 33.496 0 0 1 1.562 6.026 7.761 7.761 0 0 1-2.969.572zm4.486-1.386c-.308-1.671-.748-3.562-1.473-5.563 1.671-.198 3.32-.022 4.794.33-.352 2.177-1.584 4.024-3.32 5.233z" fill="#E6E6E6" fill-rule="evenodd"/></svg>