<?xml version="1.0" encoding="UTF-8" standalone="no"?>
<svg width="21px" height="18px" viewBox="0 0 21 18" version="1.1" xmlns="http://www.w3.org/2000/svg" xmlns:xlink="http://www.w3.org/1999/xlink">
    <!-- Generator: Sketch 3.7.2 (28276) - http://www.bohemiancoding.com/sketch -->
    <title>twitter</title>
    <desc>Created with Sketch.</desc>
    <defs></defs>
    <g id="Mobile--4" stroke="none" stroke-width="1" fill="none" fill-rule="evenodd">
        <g id="mbp-mobile" transform="translate(-15.000000, -4393.000000)" fill="#E6E6E6">
            <g id="Footer" transform="translate(15.000000, 4316.000000)">
                <path d="M21.0000551,79.7673159 C20.2222753,80.1075946 19.3958842,80.3506508 18.5208819,80.4478733 C19.4201898,79.9131496 20.1007472,79.062453 20.4167202,78.0659226 C19.5903292,78.552035 18.6667156,78.9166192 17.6944908,79.1110642 C16.8924054,78.2846731 15.7743469,77.7499495 14.5347603,77.7499495 C12.1528096,77.7499495 10.2326657,79.6700934 10.2326657,82.0520441 C10.2326657,82.3923228 10.2569713,82.7326015 10.3298882,83.0485745 C6.75696217,82.8541296 3.59723166,81.2256531 1.45833716,78.6249518 C1.09375287,79.2568979 0.875002295,79.9131496 0.875002295,80.7152351 C0.875002295,82.1978778 1.62847649,83.5103813 2.79514622,84.2881611 C2.09028326,84.2638555 1.43403154,84.0694105 0.850696675,83.7534375 L0.850696675,83.8020487 C0.850696675,85.892332 2.33333945,87.6423366 4.30209462,88.0312265 C3.93751033,88.128449 3.54862042,88.1770602 3.15973051,88.1770602 C2.8923687,88.1770602 2.62500688,88.1527546 2.35764507,88.1041433 C2.8923687,89.8055367 4.49653957,91.0694289 6.36807226,91.0937345 C4.9097351,92.2604042 3.03820241,93.1354065 1.02083601,93.1354065 C0.68055734,93.1354065 0.34027867,93.1111009 0,93.0624897 C1.89583831,94.2777706 4.18056652,94.8124943 6.61112845,94.8124943 C14.5347603,94.8124943 18.8611606,88.2499771 18.8611606,82.5624621 L18.8611606,82.0034329 C19.6875516,81.3957924 20.4167202,80.6423182 21.0000551,79.7673159 L21.0000551,79.7673159 Z" id="twitter"></path>
            </g>
        </g>
    </g>
</svg>