<?xml version="1.0" encoding="UTF-8" standalone="no"?>
<svg width="19px" height="19px" viewBox="0 0 19 19" version="1.1" xmlns="http://www.w3.org/2000/svg" xmlns:xlink="http://www.w3.org/1999/xlink">
    <!-- Generator: Sketch 3.7.2 (28276) - http://www.bohemiancoding.com/sketch -->
    <title>dribbble</title>
    <desc>Created with Sketch.</desc>
    <defs></defs>
    <g id="Mobile--4" stroke="none" stroke-width="1" fill="none" fill-rule="evenodd">
        <g id="mbp-mobile" transform="translate(-123.000000, -4393.000000)" fill="#E6E6E6">
            <g id="Footer" transform="translate(15.000000, 4316.000000)">
                <path d="M117.500025,76.9999502 C112.244224,76.9999502 108,81.2441743 108,86.4999751 C108,91.7557759 112.244224,96 117.500025,96 C122.755826,96 127.00005,91.7557759 127.00005,86.4999751 C127.00005,81.2441743 122.755826,76.9999502 117.500025,76.9999502 L117.500025,76.9999502 Z M123.70143,81.5740362 C124.734998,82.8934841 125.372731,84.542794 125.416712,86.3460395 C123.503513,85.9062235 121.678277,85.8182603 119.962994,86.0821499 C119.765077,85.5983524 119.545169,85.1145548 119.325261,84.6087664 C121.106516,83.8830701 122.557909,82.8714933 123.70143,81.5740362 L123.70143,81.5740362 Z M117.500025,78.5832877 C119.479197,78.5832877 121.304433,79.308984 122.689853,80.5184779 C121.656286,81.7279718 120.336838,82.6515854 118.665537,83.3333001 C117.851878,81.8379258 116.884283,80.2985699 115.674789,78.8031956 C116.26854,78.6492601 116.862292,78.5832877 117.500025,78.5832877 L117.500025,78.5832877 Z M114.04747,79.3749564 C115.278954,80.8703307 116.290531,82.3876958 117.104191,83.8610793 C115.103028,84.43284 112.68404,84.7407112 109.759264,84.8066836 C110.287043,82.4096866 111.892371,80.4085239 114.04747,79.3749564 L114.04747,79.3749564 Z M109.583337,86.4999751 L109.583337,86.2580763 C112.859966,86.2140947 115.542844,85.8402511 117.785905,85.1805272 C117.983822,85.5983524 118.18174,86.0381683 118.357666,86.4559935 C118.20373,86.4999751 118.049795,86.5439567 117.895859,86.6099291 C115.388908,87.489561 113.277792,89.2268341 111.606491,91.7777667 C110.353015,90.3703556 109.583337,88.5231285 109.583337,86.4999751 L109.583337,86.4999751 Z M117.500025,94.4166625 C115.674789,94.4166625 114.003488,93.8009202 112.68404,92.7893434 C114.487286,89.9525304 116.664375,88.4571561 118.907436,87.819423 C119.699105,90.0185028 120.182902,92.0636471 120.468783,93.8449018 C119.56716,94.2187453 118.555583,94.4166625 117.500025,94.4166625 L117.500025,94.4166625 Z M121.986148,93.0312422 C121.678277,91.3599415 121.238461,89.4687329 120.512764,87.4675702 C122.184065,87.269653 123.833375,87.4455794 125.306758,87.7974322 C124.954906,89.9745212 123.723421,91.8217483 121.986148,93.0312422 L121.986148,93.0312422 Z" id="dribbble"></path>
            </g>
        </g>
    </g>
</svg>