<svg width="354" height="352" viewBox="0 0 354 352" xmlns="http://www.w3.org/2000/svg" xmlns:xlink="http://www.w3.org/1999/xlink"><title>mbp-logo-bw</title><defs><path id="a" d="M.063.167h176.098v351.612H.063z"/><path id="c" d="M.312.057h77.067v81.344H.312z"/><path id="e" d="M.063.096H97.17v36.172H.063z"/><path id="g" d="M.04.097h3.679v4.414H.04z"/><path id="i" d="M.04.097h147.54v161.661H.04z"/><path id="k" d="M.032.022h188.842V80.94H.032z"/><path id="m" d="M.032.139h44.183v164.937H.032z"/></defs><g fill="none" fill-rule="evenodd"><path fill="#999" d="M351.61 351.779l-43.956-88.147L.169 351.78z"/><g transform="translate(.106 .001)" opacity=".7"><mask id="b" fill="#fff"><use xlink:href="#a"/></mask><path fill="#757575" mask="url(#b)" d="M.063 351.777L176.16.167l-88.05 351.61z"/></g><path d="M351.61 351.779l-43.956-88.147L.169 351.78z" opacity=".7" fill="#BFBFBF"/><path d="M176.267.168l-44.185 88.224L351.61 351.78z" opacity=".7" fill="#E8E8E8"/><g transform="translate(274.232 270.377)" opacity=".7"><mask id="d" fill="#fff"><use xlink:href="#c"/></mask><path fill="#9E9E9E" mask="url(#d)" d="M9.638.057l67.74 81.345L.313 2.734z"/></g><g transform="translate(.106 315.512)" opacity=".7"><mask id="f" fill="#fff"><use xlink:href="#e"/></mask><path fill="#575757" mask="url(#f)" d="M.063 36.266l94.859-27.19 2.247-8.98z"/></g><path fill="#757575" d="M148.86 109.613L176.267.168 131.45 89.651z"/><g transform="translate(149.03 108.677)" opacity=".7"><mask id="h" fill="#fff"><use xlink:href="#g"/></mask><path d="M.04.097l3.68 4.414" fill="#D04553" mask="url(#h)"/></g><g transform="translate(136.29 108.677)" opacity=".7"><mask id="j" fill="#fff"><use xlink:href="#i"/></mask><path fill="#F3F3F3" mask="url(#j)" d="M12.78.097L.04 50.972l147.54 110.784z"/></g><g transform="translate(94.996 243.646)" opacity=".7"><mask id="l" fill="#fff"><use xlink:href="#k"/></mask><path fill="#BFBFBF" mask="url(#l)" d="M.032 80.942L153.225.022l35.649 26.766z"/></g><g transform="translate(94.996 159.51)" opacity=".7"><mask id="n" fill="#fff"><use xlink:href="#m"/></mask><path fill="#999" mask="url(#n)" d="M41.334.14l2.88 141.599L.033 165.078z"/></g></g></svg>