<?xml version="1.0" standalone="no"?>
<!DOCTYPE svg PUBLIC "-//W3C//DTD SVG 20010904//EN"
 "http://www.w3.org/TR/2001/REC-SVG-20010904/DTD/svg10.dtd">
<svg version="1.0" xmlns="http://www.w3.org/2000/svg"
 width="1062.000000pt" height="1062.000000pt" viewBox="0 0 1062.000000 1062.000000"
 preserveAspectRatio="xMidYMid meet">
<metadata>
Created by potrace 1.11, written by Peter Selinger 2001-2013
</metadata>
<g transform="translate(0.000000,1062.000000) scale(0.100000,-0.100000)"
fill="#000000" stroke="none">
<path d="M3082 6188 c-2792 -5574 -3072 -6136 -3072 -6148 0 -7 1755 -10 5270
-10 2899 0 5270 4 5270 8 0 5 -620 1250 -1378 2768 -758 1517 -1940 3887
-2627 5266 -688 1380 -1253 2508 -1257 2508 -3 0 -996 -1977 -2206 -4392z
m2691 -1653 c916 -687 1662 -1253 1658 -1257 -3 -4 -735 -392 -1626 -862
l-1620 -856 -8 188 c-4 103 -23 1004 -42 2002 -19 998 -36 1866 -38 1928 -3
62 -1 111 3 110 5 -2 757 -565 1673 -1253z"/>
</g>
</svg>
