<svg width="329" height="260" viewBox="0 0 329 260" fill="none" xmlns="http://www.w3.org/2000/svg">
<path fill-rule="evenodd" clip-rule="evenodd" d="M0 206.388L37.6599 208.106L38.1501 197.441L0.490975 195.724L0 206.388Z" fill="#FEFEFE"/>
<path fill-rule="evenodd" clip-rule="evenodd" d="M3.23962 172.1L9.28392 147.693L18.0817 149.851L14.605 163.891L19.9643 165.205L22.8927 153.38L31.1854 155.413L28.2569 167.24L42.4148 170.712L39.8479 181.078L3.23962 172.1Z" fill="#FEFEFE"/>
<path fill-rule="evenodd" clip-rule="evenodd" d="M12.488 138.494L16.7484 128.695L43.0355 140.014L49.2796 125.649L57.5964 129.229L47.0926 153.393L12.488 138.494Z" fill="#FEFEFE"/>
<path fill-rule="evenodd" clip-rule="evenodd" d="M48.4294 112.412L22.9916 113.358L29.7882 102.921L36.1144 102.926C38.6713 102.907 41.3874 102.929 43.8871 102.997L43.9443 102.91C42.8446 100.595 41.7457 98.2811 40.7339 96.0228L38.0875 90.1782L44.7148 80.0002L54.0898 103.34L68.4226 112.585L62.5881 121.545L48.4294 112.412Z" fill="#FEFEFE"/>
<path fill-rule="evenodd" clip-rule="evenodd" d="M80.0978 73.3913L55.2953 67.687L64.5989 59.3802L70.7038 61.0302C73.1752 61.6773 75.791 62.4061 78.1853 63.1225L78.2633 63.0532C77.8105 60.5324 77.3576 58.0133 76.9745 55.5702L75.9544 49.2394L85.0241 41.1406L87.9435 66.1072L99.3495 78.7597L91.3654 85.8895L80.0978 73.3913Z" fill="#FEFEFE"/>
<path fill-rule="evenodd" clip-rule="evenodd" d="M119.734 53.6068C124.329 50.9557 125.721 45.1812 122.979 40.4731C120.238 35.765 114.511 34.0969 109.915 36.7473C105.32 39.3984 103.928 45.1729 106.67 49.881C109.412 54.589 115.139 56.2572 119.734 53.6068ZM105.084 28.452C114.906 22.7873 126.803 25.7489 132.261 35.1196C137.718 44.4911 134.386 56.2365 124.565 61.9021C114.743 67.5676 102.847 64.6061 97.3898 55.2345C91.9318 45.8638 95.2625 34.1184 105.084 28.452Z" fill="#FEFEFE"/>
<path fill-rule="evenodd" clip-rule="evenodd" d="M172.256 23.5915C173.918 29.0482 174.02 33.1339 172.826 36.3645C171.222 40.7474 166.937 44.3692 160.906 46.1876C154.974 47.9762 149.172 47.5065 145.267 44.5137C142.573 42.4551 140.463 38.9216 138.861 33.663L133.107 14.7631L143.375 11.667L148.948 29.971C150.005 33.4434 151.023 35.3575 152.443 36.4454C153.863 37.5341 155.91 37.9996 158.402 37.2485C160.645 36.5717 162.048 35.2824 162.701 33.677C163.426 31.942 163.279 29.4947 162.207 25.9728L156.633 7.66794L166.502 4.69156L172.256 23.5915Z" fill="#FEFEFE"/>
<path fill-rule="evenodd" clip-rule="evenodd" d="M205.045 29.848C208.116 29.777 209.672 29.4815 210.547 28.9945C211.575 28.4003 212.021 27.4568 211.99 26.1098C211.93 23.5709 210.134 22.5234 206.697 22.6035L203.314 22.6819L203.483 29.8843L205.045 29.848ZM205.444 15.789C208.672 15.7139 210.158 14.6945 210.106 12.414C210.077 11.2229 209.64 10.3513 208.482 9.80819C207.69 9.412 206.489 9.28407 204.251 9.33607L203.001 9.36495L203.154 15.8427L205.444 15.789ZM192.077 1.11676L203.739 0.846033C209.727 0.705715 213.439 1.29422 216.077 2.68419C218.818 4.12368 220.699 6.51651 220.777 9.88495C220.86 13.4086 218.884 15.7354 215.22 17.2211L215.221 17.3251C220.521 18.9635 222.63 22.2329 222.727 26.378C222.829 30.7304 220.67 34.1508 216.393 36.1689C213.56 37.5308 209.774 38.2406 205.193 38.3471L192.957 38.6319L192.077 1.11676Z" fill="#FEFEFE"/>
<path fill-rule="evenodd" clip-rule="evenodd" d="M262.349 26.5823C261.333 32.1917 259.556 35.8755 257.015 38.2105C253.584 41.3866 248.114 42.6701 241.912 41.5583C235.815 40.4639 230.864 37.4173 228.756 32.9849C227.298 29.9326 227.035 25.8304 228.015 20.4249L231.533 0.993378L242.089 2.88684L238.682 21.7059C238.037 25.2757 238.067 27.4407 238.834 29.0527C239.6 30.6639 241.209 32.006 243.771 32.4649C246.077 32.8785 247.916 32.3659 249.232 31.2334C250.669 30.0168 251.657 27.7717 252.313 24.1507L255.721 5.33084L265.867 7.15084L262.349 26.5823Z" fill="#FEFEFE"/>
<path fill-rule="evenodd" clip-rule="evenodd" d="M279.334 33.9432L273.847 9.20691L285.381 13.9942L286.507 20.1888C286.984 22.6889 287.447 25.3517 287.827 27.8114L287.923 27.8518C290.015 26.3611 292.106 24.8713 294.157 23.4764L299.462 19.8397L310.706 24.5073L289.313 37.8614L282.739 53.548L272.84 49.4392L279.334 33.9432Z" fill="#FEFEFE"/>
<mask id="mask0" mask-type="alpha" maskUnits="userSpaceOnUse" x="64" y="71" width="265" height="189">
<path d="M328.422 259.604V71.4867H64.8886V259.604H328.422Z" fill="white"/>
</mask>
<g mask="url(#mask0)">
<path fill-rule="evenodd" clip-rule="evenodd" d="M124.457 170.693C137.674 161.506 150.538 151.124 159.974 140.37C159.366 148.264 156.756 158.649 148.512 167.512C146.611 169.554 144.412 171.515 141.867 173.345C137.642 176.386 132.475 179.07 126.148 181.165C126.148 181.165 124.787 176.492 124.457 170.693ZM301.449 113.015L310.388 106.414C259.759 40.7835 175.768 85.7321 157.374 96.7676C150.599 96.1899 146.218 96.9558 146.218 96.9558C146.218 96.9558 78.4427 99.1407 64.8886 205.193C64.8886 205.193 89.1844 193.781 114.946 177.073C115.791 185.799 119.173 192.861 119.173 192.861C128.598 190.153 136.213 186.457 142.339 182.19C143.457 189.794 145.984 195.453 145.984 195.453C197.252 165.994 189.545 133.676 182.713 126.72L179.092 126.956C179.092 126.956 194.936 160.963 149.104 187.299C149.104 187.299 148.004 183.504 147.775 177.93C164.275 163.366 166.715 144.382 164.963 134.206C167.492 130.781 169.623 127.334 171.258 123.892L166.48 122.313C166.48 122.313 164.585 124.621 161.106 128.36C160.668 128.83 160.205 129.323 159.719 129.837C152.751 137.187 140.768 148.82 125.529 159.683C122.316 161.972 118.961 164.227 115.476 166.4C105.499 172.622 94.4723 178.173 82.781 181.939C82.781 181.939 95.9071 110.421 153.326 109.209C197.231 108.282 212.254 146.705 212.254 146.705L216.6 144.208C204.008 115.985 185.925 104.27 171.239 99.5567C172.255 98.846 172.859 98.3161 172.859 98.3161C258.849 62.5112 285.429 99.4527 285.429 99.4527L149.734 214.631L138.42 189.213L131.903 192.958L143.073 220.285L146.111 227.716L170.223 209.912L199.05 259.604L210.116 248.44L182.025 201.198L294.877 117.867L311.462 137.671L298.355 152.25L315.289 196.977C249.11 242.693 215.157 184.999 215.157 184.999L208.024 201.833C228.256 225.395 252.844 229.379 274.512 226.111L285.062 244.297L294.606 234.009L288.247 223.049C311.326 216.307 328.423 203.526 328.423 203.526L311.569 153.946L325.106 142.325L302.738 112.063L301.449 113.015Z" fill="#FFCE01"/>
</g>
</svg>
