<?xml version="1.0" encoding="UTF-8" standalone="no"?>
<svg width="32px" height="32px" viewBox="0 0 32 32" version="1.1" xmlns="http://www.w3.org/2000/svg" xmlns:xlink="http://www.w3.org/1999/xlink">
    <!-- Generator: Sketch 3.7.2 (28276) - http://www.bohemiancoding.com/sketch -->
    <title>Artboard</title>
    <desc>Created with Sketch.</desc>
    <defs></defs>
    <g id="Page-1" stroke="none" stroke-width="1" fill="none" fill-rule="evenodd">
        <g id="Artboard" fill="#FFFFFF">
            <path d="M11.2239751,32 C11.594346,32 11.8906427,31.7037033 11.8906427,31.3333323 L11.8906427,0.666620443 C11.8906427,0.296249527 11.594346,-4.72068787e-05 11.2239751,-4.72068787e-05 L0.55729265,-4.72068787e-05 C0.186921733,-4.72068787e-05 -0.109375,0.296249527 -0.109375,0.666620443 L-0.109375,31.3333323 C-0.109375,31.7037033 0.186921733,32 0.55729265,32 L11.2239751,32 Z M31.2240046,32 C31.5943755,32 31.8906722,31.7037033 31.8906722,31.3333323 L31.8906722,0.666620443 C31.8906722,0.296249527 31.5943755,-4.72068787e-05 31.2240046,-4.72068787e-05 L20.5573222,-4.72068787e-05 C20.1869512,-4.72068787e-05 19.8906545,0.296249527 19.8906545,0.666620443 L19.8906545,31.3333323 C19.8906545,31.7037033 20.1869512,32 20.5573222,32 L31.2240046,32 Z" id="pause"></path>
        </g>
    </g>
</svg>