<svg width="399" height="52" viewBox="0 0 399 52" fill="none" xmlns="http://www.w3.org/2000/svg">
<path d="M10.3958 38.9393C10.2218 38.9312 10.055 38.9078 9.88223 38.8971C8.93441 38.8315 8.00689 38.7412 7.09626 38.6308C6.75409 38.5886 6.42165 38.5394 6.08292 38.4912C5.32134 38.3812 4.57377 38.2556 3.83966 38.1138C3.53068 38.0527 3.21969 37.9964 2.91586 37.9319C1.91682 37.7112 0.939244 37.4697 0 37.1849C1.74746 37.2316 3.49263 37.2316 5.23064 37.199C5.7994 37.1871 6.363 37.1486 6.93175 37.1308C8.09644 37.0875 9.26341 37.0475 10.4255 36.9738C11.1099 36.9279 11.7905 36.8598 12.4737 36.8049C13.513 36.719 14.5561 36.6335 15.5932 36.5234C16.3216 36.446 17.0523 36.3497 17.7784 36.2594C18.7677 36.1364 19.757 36.012 20.7441 35.869C21.4988 35.7586 22.2498 35.6342 23.0019 35.5135C23.9592 35.3575 24.9162 35.1979 25.8723 35.0245C26.6447 34.8827 27.416 34.7349 28.1885 34.5812C29.1217 34.3994 30.053 34.2082 30.985 34.0075C31.7741 33.8386 32.5657 33.6638 33.3559 33.4834C34.2657 33.2746 35.1763 33.0587 36.0858 32.8383C36.8917 32.6401 37.6988 32.4419 38.5056 32.2353C39.3913 32.0079 40.2794 31.7698 41.1665 31.5305C41.9962 31.3065 42.8259 31.0838 43.6553 30.8516C44.5064 30.6109 45.3601 30.3624 46.2089 30.1138C47.0789 29.8594 47.9515 29.6094 48.8218 29.3468C49.5943 29.112 50.3679 28.8694 51.1463 28.6301C52.0976 28.3357 53.05 28.0413 54.0061 27.7376C54.564 27.5594 55.129 27.3705 55.6915 27.1909C65.5357 24.0021 75.4989 20.3921 85.7399 16.8595C85.8186 16.8328 85.8935 16.808 85.971 16.781H85.9733C111.082 8.12097 137.884 0 168.858 0C188.233 0 206.86 2.57582 231.213 20.1061C231.231 20.1176 231.253 20.1328 231.271 20.1494C233.011 21.402 234.776 22.725 236.578 24.1358C282.357 22.142 376.403 24.1042 399 52C360.763 28.4872 284.104 32.9368 231.716 35.4327C230.669 34.6127 229.64 33.8282 228.613 33.0587C228.311 32.8335 228.011 32.6131 227.71 32.3902C226.923 31.8072 226.136 31.2361 225.355 30.6849C225.108 30.5054 224.854 30.3227 224.605 30.1442C223.612 29.4476 222.625 28.7745 221.652 28.1246C221.454 27.992 221.257 27.8665 221.061 27.7353C220.249 27.2005 219.441 26.6772 218.639 26.1742C218.389 26.0158 218.142 25.8609 217.896 25.7087C215.911 24.4794 213.963 23.3417 212.046 22.2991C211.913 22.2276 211.785 22.1609 211.653 22.088C210.724 21.5884 209.805 21.1099 208.896 20.6513C208.852 20.6302 208.81 20.608 208.767 20.588C207.763 20.0861 206.768 19.6065 205.781 19.1547C205.781 19.1547 205.788 19.1547 205.79 19.1547C190.741 12.234 177.543 10.8325 163.993 11.2921C149.409 11.7884 134.111 14.2136 118.836 17.438C118.274 17.555 117.715 17.6735 117.155 17.7954C115.812 18.0839 114.469 18.3784 113.127 18.6776C112.69 18.7736 112.249 18.871 111.811 18.9684C110.133 19.3484 108.458 19.7354 106.785 20.1261C106.082 20.2902 105.379 20.4591 104.674 20.628C103.665 20.8672 102.659 21.1099 101.649 21.3528C100.804 21.558 99.9599 21.762 99.1147 21.9672C98.2979 22.1679 97.4863 22.3695 96.6721 22.5724C84.5798 25.5691 72.7392 28.7216 61.5184 31.4638C61.4005 31.4931 61.2846 31.5224 61.1667 31.5516C57.7525 32.3857 54.3935 33.1772 51.1034 33.9183C50.8233 33.9783 50.5418 34.0416 50.2617 34.1049C48.9577 34.3946 47.6643 34.676 46.3829 34.9457C46.0155 35.0245 45.645 35.1005 45.2788 35.1782C43.8724 35.4701 42.4766 35.7538 41.0996 36.019C40.9686 36.046 40.8304 36.0705 40.6991 36.0975C39.1922 36.3886 37.7045 36.6582 36.2349 36.9104C35.9119 36.9667 35.596 37.016 35.2727 37.0698C34.1524 37.2564 33.0438 37.4368 31.9457 37.6012C31.5252 37.6645 31.1055 37.7242 30.6869 37.783C29.5915 37.9378 28.5126 38.082 27.4458 38.2097C27.1394 38.2463 26.8307 38.2897 26.5257 38.3249C25.1834 38.4783 23.8636 38.6109 22.5645 38.7189C22.2855 38.7412 22.0172 38.7553 21.7382 38.7775C20.7249 38.8538 19.7261 38.9171 18.7414 38.9641C18.3409 38.9827 17.9441 38.9979 17.5492 39.0086C16.6409 39.0401 15.7494 39.0567 14.8697 39.0578C14.5298 39.0578 14.1877 39.0626 13.8541 39.0578C12.6762 39.0471 11.5187 39.0108 10.3958 38.9393Z" fill="white"/>
</svg>
